<svg xmlns="http://www.w3.org/2000/svg" viewBox="0 0 126 146"><defs><style>.a{fill:#231815;}</style></defs><title>logo</title><path class="a" d="M70.242,7.61154c-7.325,12.743-13.48116,24.07622-20.49048,36.64639-1.92823,3.458-4.40084,8.00442-6.26069,11.49965-1.8882,3.54852-10.3473,3.57234-12.84895,3.17,14.11976-15.48409,31.23782-46.157,39.6033-59.13684,2.53311,1.84657,2.00386,4.67782.09172,7.67846C70.30918,7.51275,70.26753,7.56717,70.242,7.61154Z"/><path class="a" d="M52.76538,29.2949c9.73733-7.63574,20.72121-10.50223,32.86409-8.1281a33.63723,33.63723,0,0,1,11.88629,4.37839c4.98624,3.24028,7.70336,8.40863,8.517,14.21077.04366.708.09437,1.41635.1225,2.125a15.32486,15.32486,0,0,1-.05979,2.29264A16.17838,16.17838,0,0,1,105.624,46.484a18.69176,18.69176,0,0,1-1.81416,4.29329,33.55934,33.55934,0,0,1-5.75256,7.31644,73.96725,73.96725,0,0,1-7.11831,6.14544q-1.8741,1.4335-3.80182,2.79956c-1.26875.92249-2.55888,1.81774-3.85253,2.70318l-3.86279,2.6363c-1.28632.86887-2.5706,1.72562-3.80094,2.59205-1.2283.8617-2.449,1.71852-3.43518,2.53674-1.10228.93078-2.16117,1.88091-3.19193,2.8409a46.41952,46.41952,0,0,0-5.45215,6.01567A25.33,25.33,0,0,0,61.48592,89.548a36.29741,36.29741,0,0,0-2.39177,6.71987c-4.033-.24749-6.81051-4.42732-4.53633-8.84342a40.90638,40.90638,0,0,1,2.54334-3.62434q1.376-1.75268,2.89679-3.41287c1.01669-1.10348,2.08-2.176,3.15909-3.23172,6.99838-6.84685,14.92266-12.52463,22.707-18.408,3.40015-2.56981,6.65544-5.49188,8.72111-9.2199A17.18068,17.18068,0,0,0,95.44193,35.602c-3.29169-9.709-16.61043-11.47662-25.18711-9.73852a51.345,51.345,0,0,0-9.90056,3.2167c-2.98665,1.2739-5.858,2.53071-7.93983,5.13332C50.75258,36.291,49.91291,31.53173,52.76538,29.2949Z"/><path class="a" d="M32.313,86.3022a15.40377,15.40377,0,0,1-3.38391,2.991A35.99258,35.99258,0,0,1,25.2495,91.463c-2.77911,1.51519-6.05421-.06214-6.05421-.06214a46.63621,46.63621,0,0,0,8.96319-3.35233A16.05236,16.05236,0,0,0,31.77906,85.756l.13547-.12325C32.41387,85.62009,32.53455,86.071,32.313,86.3022Z"/><path class="a" d="M35.63833,83.80771a39.92757,39.92757,0,0,0,6.45923,5.48553A35.99258,35.99258,0,0,0,45.77711,91.463a41.3577,41.3577,0,0,0,3.9021,1.74555l1.19573.3134c.333-.9877-.87358-3.02068-2.02052-3.45017-1.98943-.745-4.14944-.945-5.98629-2.02325a38.64868,38.64868,0,0,1-6.6959-4.78707l-.13547-.12324C35.53741,83.1256,35.41674,83.57649,35.63833,83.80771Z"/><path class="a" d="M42.34822,83.92352H28.76544c-.45914,0-.45914-.78556,0-.78556H42.34822C42.80736,83.138,42.80736,83.92352,42.34822,83.92352Z"/><path class="a" d="M41.30112,73.82959H29.45049c-.40059,0-.40059-.78556,0-.78556H41.30112C41.7017,73.044,41.7017,73.82959,41.30112,73.82959Z"/><path class="a" d="M43.635,73.01685a5.29784,5.29784,0,0,1-.35183,1.63369,6.72515,6.72515,0,0,1-.73692,1.37938A10.06878,10.06878,0,0,1,40.53073,78.135a13.88947,13.88947,0,0,1-1.13938.83057q-.58377.388-1.19449.72592a12.78169,12.78169,0,0,1-1.26259.61607,6.71641,6.71641,0,0,1-.6786.24584,3.33976,3.33976,0,0,1-.76476.15206l-.1101.004c-.04084-.00046-.091-.0009-.12873-.00494a1.85585,1.85585,0,0,1-.22026-.032,3.52948,3.52948,0,0,1-.377-.1c-.23535-.078-.46-.158-.67718-.251-.436-.18127-.8554-.38124-1.27167-.59141-.41525-.21131-.82591-.43366-1.2314-.67183-.40683-.23627-.80722-.49037-1.19757-.76827a9.36545,9.36545,0,0,1-2.14891-2.03861,6.08381,6.08381,0,0,1-.43147-.66349,5.30624,5.30624,0,0,1-.355-.74094,4.90664,4.90664,0,0,1-.352-1.70341l-.00193-.113.00229-.10155.00744-.19985c.00336-.133.01813-.26663.03175-.39965a7.08,7.08,0,0,1,.13663-.79318A6.29629,6.29629,0,0,1,28.6494,68.736a7.03607,7.03607,0,0,1,1.16925-1.01333,8.52909,8.52909,0,0,1,2.6938-1.20186,11.0362,11.0362,0,0,1,2.814-.34667,10.44622,10.44622,0,0,1,2.79537.38,9.10253,9.10253,0,0,1,1.35116.49432,7.70515,7.70515,0,0,1,1.276.72809,6.84217,6.84217,0,0,1,2.04923,2.23422,6.54309,6.54309,0,0,1,.60614,1.44909c.03341.12709.06824.25471.09684.38342.02521.129.05234.25842.07461.38842.01806.13011.03876.26069.05273.39174A3.71333,3.71333,0,0,1,43.635,73.01685Zm-2.32321,0a1.81664,1.81664,0,0,1-.01128-.27468l.00089-.27462-.01222-.27425-.02551-.27362a5.19922,5.19922,0,0,0-1.44-3.04023,5.63163,5.63163,0,0,0-2.02721-1.343,6.57806,6.57806,0,0,0-2.465-.43585,6.14033,6.14033,0,0,0-2.43673.52853,5.54285,5.54285,0,0,0-3.02089,3.36,5.833,5.833,0,0,0-.23945,1.0381,4.56045,4.56045,0,0,0-.05241.52926c-.00256.08915-.0129.17722-.01008.26723l-.00142.13424-.00111.06549.00212.054a3.63726,3.63726,0,0,0,.1595.90891c.05005.158.10958.32013.17681.48459q.105.24469.2319.49637a10.99854,10.99854,0,0,0,1.34595,1.98777A11.24259,11.24259,0,0,0,33.33084,78.716a8.12808,8.12808,0,0,0,1.07485.687,4.781,4.781,0,0,0,.55935.2553,2.62384,2.62384,0,0,0,.26582.08171.96825.96825,0,0,0,.10945.02107c.01755.00289.02333.00195.03807.00379l.05691-.0012a2.44811,2.44811,0,0,0,.54239-.11276,5.11585,5.11585,0,0,0,.57175-.225,7.84662,7.84662,0,0,0,1.101-.62922,9.81437,9.81437,0,0,0,1.00818-.78724,11.24349,11.24349,0,0,0,.89393-.90351,8.57954,8.57954,0,0,0,1.33865-2.03649A4.18,4.18,0,0,0,41.31175,73.01685Z"/><path class="a" d="M34.256,95.2119V68.36105c0-.59273,2.23977.31184,2.23977.90457V96.06777C36.49572,96.66044,34.256,95.80456,34.256,95.2119Z"/><path class="a" d="M14.15027,110.381a12.19745,12.19745,0,0,0-.10347,1.90725v6.90958a13.663,13.663,0,0,0,.10347,1.90795H11.37888a12.532,12.532,0,0,0,.10278-1.90795v-2.50081H7.13791v2.50081a13.31314,13.31314,0,0,0,.10277,1.90795H4.4693a12.21442,12.21442,0,0,0,.10347-1.90795v-6.90958A12.51609,12.51609,0,0,0,4.4693,110.381H7.24068a13.88364,13.88364,0,0,0-.10277,1.90725v2.14006h4.34375v-2.14006a12.19813,12.19813,0,0,0-.10278-1.90725Z"/><path class="a" d="M41.12372,115.69168c0,3.40271-2.075,5.65883-5.20718,5.65883-3.15871,0-5.1953-2.20438-5.1953-5.62037,0-3.40271,2.03659-5.58122,5.20789-5.58122S41.12372,112.31415,41.12372,115.69168Zm-2.68119.02587c0-2.08832-.95363-3.35167-2.5134-3.35167-1.57237,0-2.53927,1.27593-2.53927,3.35167,0,2.10091.9669,3.40271,2.53927,3.40271C37.4889,119.12026,38.44253,117.83105,38.44253,115.71755Z"/><path class="a" d="M67.55745,110.381a12.758,12.758,0,0,0-.10348,1.9464v4.43394c0,2.93917-1.766,4.60172-4.87229,4.60172a5.00517,5.00517,0,0,1-3.674-1.26334,4.74111,4.74111,0,0,1-1.134-3.36425v-4.40807a12.54394,12.54394,0,0,0-.10347-1.9464H60.4549a11.92634,11.92634,0,0,0-.10347,1.9464v4.43394c0,1.62409.73479,2.39734,2.24283,2.39734,1.5472,0,2.282-.77325,2.282-2.39734v-4.43394a12.6548,12.6548,0,0,0-.10347-1.9464Z"/><path class="a" d="M93.21652,119.19786a21.19766,21.19766,0,0,0,1.36612,1.90795h-3.351a15.50393,15.50393,0,0,0-.89-1.63738l-1.99743-3.19716-1.3025,1.30249v1.6241a14.52238,14.52238,0,0,0,.10347,1.90795H84.41227a14.52065,14.52065,0,0,0,.10347-1.90795v-6.90958a14.01033,14.01033,0,0,0-.10347-1.90725H87.1452a14.2522,14.2522,0,0,0-.10347,1.90725v2.282l2.56514-2.74552A7.88862,7.88862,0,0,0,90.729,110.381H94.2093c-.23212.23141-.32231.33489-.50268.51526l-.90259.90259-2.69448,2.82242Z"/><path class="a" d="M118.08977,121.10581a10.474,10.474,0,0,0-.309-1.39268l-.34817-1.09555h-3.674l-.34817,1.09555a7.51335,7.51335,0,0,0-.3223,1.39268h-3.01608a12.63488,12.63488,0,0,0,.61873-1.57306l2.78467-7.75974a7.99212,7.99212,0,0,0,.41249-1.392h3.36426a10.27271,10.27271,0,0,0,.43836,1.392l2.79725,7.75974c.2447.68306.45094,1.21161.61874,1.57306Zm-2.51341-8.5211-1.199,3.86764h2.42321Z"/><path class="a" d="M12.89465,137.47066c-.30915.84954-1.25955,3.45637-1.32433,3.55724-.05822.10742-.14432.21566-.21648.21566-.07873,0-.11481-.03608-.20173-.31653-.13694-.44691-1.28169-4.05416-1.46127-4.30591-.09348-.1517-.20172-.18778-.48955-.23124-.25995-.0287-.25257-.26569.02132-.26569.21567,0,.46823.02132.73474.02132.2952,0,.57565-.02132.81345-.02132.27389,0,.28783.23043.03608.26569-.38212.0656-.4182.16564-.35342.36736.11562.38213.893,2.80118,1.05208,3.24809.0287.08611.04264.08611.07872.0287.04346-.07216.9504-2.59207,1.23167-3.34813a2.1132,2.1132,0,0,1,.20172-.41083c.0574-.09348.20091-.12218.22305.06479.03608.15826.15088.55433.23042.82821.15826.45347.84216,2.37641,1.02256,2.866.0287.07873.0574.07217.0861-.00738.21649-.59779.63388-1.8434.87168-2.54943a5.13566,5.13566,0,0,0,.20829-.81346c0-.13694-.0574-.21566-.52563-.27388-.26651-.0287-.25913-.25913.00738-.25913.23042,0,.60517.01476.81345.01476.22387,0,.49693-.02132.66258-.02132.2665,0,.27388.23043,0,.26569-.30915.05084-.39607.13038-.583.59123-.26651.66175-.9217,2.54123-1.36123,3.75814-.15089.40345-.237.49693-.30915.49693-.08692,0-.11562-.07216-.15826-.187-.18041-.55434-.97254-2.80856-1.27513-3.57856C12.92335,137.44852,12.902,137.442,12.89465,137.47066Z"/><path class="a" d="M19.45807,136.70722a3.517,3.517,0,0,0,.1148-.33866c.01476-.07217.25995-.31653.36737-.31653.07216,0,.10086.02132.11562.10824a1.22165,1.22165,0,0,0,.10086.39525c.41,1.1021,1.11605,2.81594,1.56952,3.84588a.619.619,0,0,0,.56909.46085c.31652.03608.27306.26651.01394.26651-.16565,0-.43871-.01476-.72-.01476-.23042,0-.57565.01476-.72735.01476-.27307,0-.28783-.22387-.0287-.26651.2952-.05822.31734-.12956.25912-.2952-.10086-.29521-.36-.90776-.533-1.33253-.02132-.06478-.04264-.07954-.1435-.07954H18.90374c-.03608,0-.05741.02952-.07955.0656-.1148.28044-.2665.65519-.42476,1.10866-.14433.39607-.10825.45347.41082.53957.25175.03608.23043.26-.0287.26-.2091,0-.40345-.01476-.72079-.01476-.32391,0-.66914.02132-.77.02132-.23042,0-.25256-.20829-.01476-.25913.39607-.07872.50431-.12218.72736-.64043C18.31332,139.51578,19.14154,137.4559,19.45807,136.70722Zm-.47561,2.04513c-.00656.03608,0,.04264.04346.04264h1.28169c.08692,0,.07954-.0287.06478-.06478-.19435-.43871-.40345-1.02257-.69128-1.74254C19.54417,137.31158,19.16286,138.33414,18.98246,138.75235Z"/><path class="a" d="M25.08585,136.81547c-.00738.16564-.01476.2665-.01476.9504v1.69907c0,.72736,0,.77082.01476.92908.03608.33129.0574.40345.54695.47479.23042.02952.2378.26-.02132.26-.1517,0-.41083-.01476-.8069-.01476-.30177,0-.69783.01476-.893.01476-.2296,0-.237-.23781.00738-.26651.49693-.06478.50431-.12956.533-.42477.01476-.12956.01476-.21648.01476-.97254v-1.69907a9.3366,9.3366,0,0,0-.01476-.94384c-.0287-.27307-.04346-.37393-.51825-.43215-.27388-.0287-.27388-.25913-.01476-.25913.15171,0,.56909.01476.843.01476.33129,0,.7126-.01476.87086-.01476.23042,0,.24518.23043-.01394.25913C25.14325,136.4481,25.09323,136.549,25.08585,136.81547Zm3.44161-.68472c.26651,0,.25257.22387.00738.25257a1.42659,1.42659,0,0,0-.9217.46741c-.61911.533-1.49079,1.36861-1.57689,1.43339-.03608.05-.02132.0574.00738.12218a18.35792,18.35792,0,0,0,1.973,2.18945,1.09223,1.09223,0,0,0,.76344.27306c.237.02214.2665.22387.00656.26a3.75742,3.75742,0,0,1-.93564,0,1.2046,1.2046,0,0,1-.61256-.39607,18.84572,18.84572,0,0,1-1.46127-1.70728,4.12932,4.12932,0,0,0-.41739-.47479c-.02952-.0287-.0943-.13694.0574-.2091a1.56736,1.56736,0,0,0,.26651-.15089,14.17754,14.17754,0,0,0,1.31777-1.239c.187-.17959.35261-.33785.35261-.41,0-.0861-.08611-.10086-.38869-.1517-.25257-.03526-.24519-.25913.03608-.25913.16564,0,.42477.01476.86348.01476C28.11745,136.14551,28.35526,136.13075,28.52746,136.13075Z"/><path class="a" d="M31.98711,136.70722a3.5151,3.5151,0,0,0,.11481-.33866c.01476-.07217.25994-.31653.36736-.31653.07217,0,.10087.02132.11563.10824a1.22165,1.22165,0,0,0,.10086.39525c.41,1.1021,1.116,2.81594,1.56951,3.84588a.619.619,0,0,0,.56909.46085c.31653.03608.27307.26651.01394.26651-.16564,0-.43871-.01476-.72-.01476-.23043,0-.57565.01476-.72736.01476-.27306,0-.28782-.22387-.0287-.26651.29521-.05822.31735-.12956.25913-.2952-.10086-.29521-.36-.90776-.53219-1.33253-.02214-.06478-.04346-.07954-.14433-.07954H31.43278c-.03608,0-.0574.02952-.07954.0656-.1148.28044-.26651.65519-.42477,1.10866-.1435.39607-.10824.45347.41083.53957.25175.03608.23042.26-.0287.26-.20911,0-.40345-.01476-.7208-.01476-.3239,0-.66913.02132-.77.02132-.23043,0-.25257-.20829-.01476-.25913.39607-.07872.50431-.12218.72735-.64043C30.84237,139.51578,31.67059,137.4559,31.98711,136.70722Zm-.47561,2.04513c-.00656.03608,0,.04264.04346.04264h1.28169c.08692,0,.07954-.0287.06478-.06478-.19434-.43871-.40345-1.02257-.69127-1.74254C32.07322,137.31158,31.69191,138.33414,31.5115,138.75235Z"/><path class="a" d="M37.9101,138.6441c.0287.05.06478.02132.0861-.00738.26651-.46823.69866-1.20952.94384-1.663a1.01944,1.01944,0,0,0,.1435-.38213c0-.0861-.07134-.15826-.3813-.20828-.25913-.03608-.23781-.25913.00738-.25913.2665,0,.48955.02132.70521.02132.27389,0,.51907-.02132.67734-.02132.28782,0,.30914.23043.01394.26569a.79213.79213,0,0,0-.64782.42559c-.33866.49611-.88562,1.43257-1.22428,2.05168a.84536.84536,0,0,0-.14351.36v.74949c0,.26569.00656.48955.01394.57565.0287.21649.15171.25913.583.31653.27388.03608.24518.26-.0287.26-.30915,0-.547-.01476-.88562-.01476-.26651,0-.533.01476-.79952.01476-.26569,0-.26569-.23043-.01394-.26.46823-.06478.49693-.15826.51087-.37393.00738-.08692.00738-.28126.00738-.50431v-.64781a1.00977,1.00977,0,0,0-.04346-.33129,22.8134,22.8134,0,0,0-1.353-2.38379c-.0943-.12956-.173-.19434-.51169-.24436-.25913-.03608-.26651-.25913.00738-.25913.29521,0,.50431.02132.74868.02132.25174,0,.48955-.02132.67733-.02132.28045,0,.26651.21567.0287.25913-.28127.0574-.29521.12956-.223.25174C37.13928,137.25417,37.84532,138.51454,37.9101,138.6441Z"/><path class="a" d="M42.804,136.70722a3.51806,3.51806,0,0,0,.11481-.33866c.01476-.07217.25994-.31653.36736-.31653.07216,0,.10087.02132.11563.10824a1.22165,1.22165,0,0,0,.10086.39525c.41,1.1021,1.116,2.81594,1.56951,3.84588a.619.619,0,0,0,.56909.46085c.31653.03608.27307.26651.01394.26651-.16564,0-.43871-.01476-.72-.01476-.23043,0-.57565.01476-.72736.01476-.27306,0-.28782-.22387-.0287-.26651.29521-.05822.31735-.12956.25913-.2952-.10086-.29521-.36-.90776-.533-1.33253-.02132-.06478-.04264-.07954-.14351-.07954H42.24963c-.03608,0-.0574.02952-.07954.0656-.1148.28044-.26651.65519-.42477,1.10866-.14432.39607-.10824.45347.41083.53957.25174.03608.23042.26-.0287.26-.20911,0-.40345-.01476-.7208-.01476-.3239,0-.66913.02132-.77.02132-.23043,0-.25257-.20829-.01476-.25913.39607-.07872.50431-.12218.72735-.64043C41.65922,139.51578,42.48744,137.4559,42.804,136.70722Zm-.47561,2.04513c-.00656.03608,0,.04264.04346.04264H43.6535c.08692,0,.07954-.0287.06478-.06478-.19434-.43871-.40345-1.02257-.69127-1.74254C42.89007,137.31158,42.50876,138.33414,42.32835,138.75235Z"/><path class="a" d="M47.2788,141.12876c-.26651,0-.27389-.23043-.02132-.26.43215-.0861.48955-.15088.533-.47479.07872-.57647.23042-2.93074.25912-3.50721.01394-.28045.00656-.41739-.706-.49693-.23781-.02132-.25175-.25175.0287-.25175.18778,0,.78476-.01394,1.05126.02214.09348.02132.13695.07134.20911.17959a4.48242,4.48242,0,0,1,.3813.67c.28127.55433,1.26037,2.59945,1.4621,3.00208.01476.02952.03608.02952.0574-.00656.123-.21648,1.09472-2.11728,1.69989-3.27679.26651-.49693.35261-.56827.48217-.583.10825-.01476.5978-.02132.893-.02132.28783,0,.27389.24437.00738.27307-.49693.06478-.59779.11562-.60517.39607-.01476.36736.01476,3.07506.05,3.57937.02952.37393.05822.41739.55515.48955.27307.03608.27307.26651-.04346.26651-.28126,0-.43953-.01476-.77737-.01476-.28127,0-.67734.01476-.79214.01476-.28127,0-.28865-.22387,0-.26651.38131-.06478.40263-.1517.41-.40345.02214-.68389.01476-2.72163.00738-3.27679,0-.0574-.02132-.04264-.03608-.0287-.44609.85692-1.02995,2.00167-1.476,2.8881-.23781.46741-.32391.69128-.45347.98649-.08693.21566-.25913.187-.31735.03608a5.443,5.443,0,0,0-.30915-.82822c-.2378-.56171-.76343-1.80076-1.38993-3.09639-.01476-.0287-.04346-.0287-.05084.02132-.06478,1.19559-.1435,2.62816-.15088,3.18249-.00738.38213.0574.43215.62649.51907.25175.02132.25175.26651-.04346.26651-.21566,0-.49693-.01476-.82084-.01476C47.75441,141.114,47.41574,141.12876,47.2788,141.12876Z"/><path class="a" d="M57.36255,136.70722a3.517,3.517,0,0,0,.1148-.33866c.01476-.07217.25995-.31653.36737-.31653.07216,0,.10086.02132.11562.10824a1.22194,1.22194,0,0,0,.10087.39525c.41,1.1021,1.116,2.81594,1.56951,3.84588a.619.619,0,0,0,.56909.46085c.31653.03608.27307.26651.01394.26651-.16564,0-.43871-.01476-.72-.01476-.23043,0-.57565.01476-.72736.01476-.27306,0-.28782-.22387-.0287-.26651.29521-.05822.31735-.12956.25913-.2952-.10087-.29521-.36-.90776-.533-1.33253-.02132-.06478-.04265-.07954-.14351-.07954H56.80822c-.03608,0-.0574.02952-.07954.0656-.1148.28044-.26651.65519-.42477,1.10866-.14432.39607-.10824.45347.41083.53957.25174.03608.23042.26-.0287.26-.20911,0-.40345-.01476-.7208-.01476-.3239,0-.66913.02132-.77.02132-.23043,0-.25257-.20829-.01476-.25913.39606-.07872.50431-.12218.72735-.64043C56.21781,139.51578,57.046,137.4559,57.36255,136.70722Zm-.47561,2.04513c-.00656.03608,0,.04264.04346.04264h1.28169c.08692,0,.07954-.0287.06478-.06478-.19434-.43871-.40345-1.02257-.69127-1.74254C57.44865,137.31158,57.06735,138.33414,56.88694,138.75235Z"/><path class="a" d="M66.01128,139.91185c0,.32391.00738.44609.01476.56827.01394.25913.0861.31.57565.37475.28864.03608.2665.27389,0,.27389-.28045,0-.51087-.01476-.893-.01476-.27307,0-.62567.01476-.81346.01476-.25174,0-.27306-.23043-.04346-.26.46085-.07134.52645-.12956.54039-.35261.00738-.12218.01476-.25912.01476-.72735v-2.57076c0-.47479-.00738-.597-.07954-.67651-.07216-.0861-.187-.11562-.48955-.15826-.223-.0287-.23042-.25913.04346-.25913.21567,0,.51825.02132.83478.02132h1.37517a4.2865,4.2865,0,0,0,1.19558-.07954c.09349-.0287.15827.00738.12957.123a5.79573,5.79573,0,0,0-.10087.9504c-.00656.20829-.2378.23043-.2665.00738-.0287-.1517-.05-.25994-.07872-.38951-.04346-.1435-.07954-.237-.23043-.25174-.19434-.0287-1.40469-.00738-1.63511.01476-.07872.00656-.09348.05-.09348.16564v1.68432c0,.0287.00738.04346.03608.04346h.92908c.63387,0,.71259-.03608.78475-.10086a.93438.93438,0,0,0,.15827-.27389c.07954-.19434.28864-.15088.25256.07216a6.03019,6.03019,0,0,0-.03608,1.08c.01394.31-.223.32472-.28127.05822a1.407,1.407,0,0,0-.07216-.24519c-.05-.16564-.1-.24436-.59041-.24436h-1.116c-.05,0-.06478.01394-.06478.0574Z"/><path class="a" d="M72.39593,138.06107a.72739.72739,0,0,1-.10086.38131c-.02132.0574-.0861.13694-.15826.13694-.06479,0-.07955-.01476-.187-.13694a.49675.49675,0,0,0-.38213-.17958.81952.81952,0,0,0-.61911.34522.15232.15232,0,0,0-.03608.10825v1.41863c0,.17958.00738.3239.01476.43215.01394.20828.07872.237.49693.31652.21567.04346.187.24519-.01476.24519-.15088,0-.40345-.01476-.71259-.01476-.31,0-.49694.01476-.67.01476-.19434,0-.21566-.20173-.02132-.25257.30259-.07872.31653-.10742.33129-.28044a2.8484,2.8484,0,0,0,.02132-.45347v-1.18165a2.41148,2.41148,0,0,0-.02132-.47479c-.00738-.10824-.07954-.15826-.35343-.24518-.1148-.04264-.1148-.16565,0-.21567a6.28857,6.28857,0,0,0,.656-.33129.22853.22853,0,0,1,.12219-.04346c.0574,0,.09348.0574.10742.137a3.59323,3.59323,0,0,1,.04346.56909c.59779-.59041.81346-.706,1.04388-.706A.41773.41773,0,0,1,72.39593,138.06107Z"/><path class="a" d="M74.842,139.68143a2.20733,2.20733,0,0,0,.04346.56089.63615.63615,0,0,0,.66258.483,1.08951,1.08951,0,0,0,.86348-.46085.22957.22957,0,0,0,.0287-.1517v-1.38911a2.53945,2.53945,0,0,0-.01394-.31c-.02214-.1804-.07216-.23781-.45347-.31-.18779-.0287-.18041-.25174.04264-.25912a2.60576,2.60576,0,0,0,.69127-.07872c.123-.0287.19435-.05823.22387-.05823a.10232.10232,0,0,1,.09348.14433,4.52482,4.52482,0,0,0-.04346.74867v1.33253a1.758,1.758,0,0,0,.0574.64782c.07954.10824.14432.10824.38213.08692.12956-.00738.15826.13612.04264.237a1.47519,1.47519,0,0,1-.7987.30259c-.1804,0-.20172-.29521-.21648-.6552a1.92955,1.92955,0,0,1-1.18821.66258.89457.89457,0,0,1-.67651-.26651,1.22182,1.22182,0,0,1-.28783-.91432v-1.1882c0-.12956,0-.28127-.01476-.43953-.00738-.09348-.05-.187-.31653-.26651-.16564-.05-.12956-.223.03609-.25174a2.66162,2.66162,0,0,0,.61173-.15826,1.06546,1.06546,0,0,1,.19434-.07217c.06478,0,.12218.0574.10086.15827a3.24808,3.24808,0,0,0-.06478.82083Z"/><path class="a" d="M79.15287,141.12876c-.24436,0-.25174-.22387-.02132-.26651.30915-.06478.35261-.123.35261-.42477v-1.67119a1.89936,1.89936,0,0,0-.01476-.32391c-.00656-.1148-.0287-.1435-.31653-.25913-.12956-.05-.13694-.2091.03609-.2378a1.79132,1.79132,0,0,0,.61173-.22305.381.381,0,0,1,.1804-.07216c.07216,0,.1148.05084.10086.15827a5.05875,5.05875,0,0,0-.0574.9217v1.67119c0,.33785.0287.39607.36.46085.22305.03608.22305.26651-.0287.26651-.1804,0-.35343-.01476-.61255-.01476C79.54156,141.114,79.28244,141.12876,79.15287,141.12876Zm.98649-4.825a.40673.40673,0,0,1-.40345.43953.38061.38061,0,0,1-.38131-.40344.40977.40977,0,0,1,.40345-.43215A.392.392,0,0,1,80.13936,136.30377Z"/><path class="a" d="M83.0332,140.09882c0,.4387.12218.62649.42477.62649a.92173.92173,0,0,0,.38868-.07216c.15089-.04346.23781.10086.04264.28782a1.12792,1.12792,0,0,1-.72.27389c-.34523,0-.67651-.15088-.67651-1.04388v-1.98773h-.09349c-.3239,0-.41821,0-.47561-.00738-.05-.00738-.06478-.05-.06478-.09348,0-.07872.15171-.2378.19435-.25912a1.43872,1.43872,0,0,1,.43953-.0287,3.46358,3.46358,0,0,1,.0574-.85692,1.51,1.51,0,0,1,.40345-.39607c.12218-.07954.20172-.00738.14432.12956a4.04625,4.04625,0,0,0-.06478,1.12343h.45347c.16564,0,.34522-.00738.38868-.01476s.05741.01476.05741.06478a.50134.50134,0,0,1-.10087.28864c-.0287.03526-.10824.05-.42477.05H83.0332Z"/><path class="a" d="M87.20709,139.24928a.901.901,0,0,1,.67.80607,1.09527,1.09527,0,0,1-.57647.95778,1.52862,1.52862,0,0,1-.77738.20911,1.41016,1.41016,0,0,1-.58385-.11562c-.04264-.02132-.07872-.03608-.12218.02214-.07955.09348-.25913.1435-.25913-.05822,0-.25175-.02132-.52564-.0574-.88562-.02214-.22305.20172-.26651.2665-.05.014.04264.07135.20172.10087.28044a.80662.80662,0,0,0,.82083.483q.62608,0,.6265-.58385a.56947.56947,0,0,0-.38213-.533c-.20828-.0861-.48217-.187-.69128-.26569a.88031.88031,0,0,1-.28044-1.59165,1.39817,1.39817,0,0,1,.86348-.27389,1.44528,1.44528,0,0,1,.47561.07955c.05084.01394.0574.00738.07954-.00739.05-.03608.0861-.09348.12956-.12218.0861-.06478.21567-.0574.19435.0574a5.28169,5.28169,0,0,0-.07217.90694c0,.23781-.223.27389-.25912.07954a1.2357,1.2357,0,0,0-.12218-.36736.65108.65108,0,0,0-.61994-.30915c-.42477,0-.547.24437-.547.48955,0,.33129.21567.46085.48955.56827Z"/><path class="a" d="M92.85045,140.58837a2.61552,2.61552,0,0,1-1.65644.63387,1.43151,1.43151,0,0,1-1.51867-1.38993,1.21355,1.21355,0,0,1,.3239-.8356,5.61132,5.61132,0,0,1,.82822-.62649,1.81827,1.81827,0,0,1-.47561-1.13A1.26566,1.26566,0,0,1,91.6196,136.016a.96937.96937,0,0,1,1.08.96516c0,.48217-.3239.82084-1.1882,1.33171.64781.74867,1.1595,1.28168,1.55557,1.65643a2.85683,2.85683,0,0,0,.56171-1.76467,1.29591,1.29591,0,0,0-.05822-.32391c-.02132-.10086.06478-.13694.13694-.13694a.51108.51108,0,0,1,.46823.50431,2.56673,2.56673,0,0,1-.16564.72,4.48875,4.48875,0,0,1-.72736,1.18821c.46823.40345.76344.547.97911.547a1.01972,1.01972,0,0,0,.42476-.09348c.18041-.07873.25257.05822.123.21648a1.14033,1.14033,0,0,1-.87168.37393c-.38869,0-.61173-.17959-1.0078-.53957Zm-.20829-.20173a22.18022,22.18022,0,0,1-1.64249-1.79994c-.48955.36-.70522.64782-.70522,1.08735a1.12793,1.12793,0,0,0,1.23085,1.10128A1.864,1.864,0,0,0,92.64216,140.38664ZM91.331,138.11109c.483-.33866.8356-.64043.8356-1.05126a.67171.67171,0,0,0-.72-.72735c-.42477,0-.59042.33128-.59042.71341a1.51189,1.51189,0,0,0,.38869.96434Z"/><path class="a" d="M100.04036,137.47066c-.30915.84954-1.25955,3.45637-1.32433,3.55724-.05822.10742-.14432.21566-.21648.21566-.07873,0-.11481-.03608-.20173-.31653-.13694-.44691-1.28169-4.05416-1.46127-4.30591-.09348-.1517-.20172-.18778-.48955-.23124-.25995-.0287-.25257-.26569.02132-.26569.21566,0,.46823.02132.73474.02132.2952,0,.57565-.02132.81345-.02132.27389,0,.28783.23043.03608.26569-.38212.0656-.41821.16564-.3526.36736.1148.38213.89217,2.80118,1.05126,3.24809.0287.08611.04264.08611.07872.0287.04346-.07216.9504-2.59207,1.23167-3.34813a2.1132,2.1132,0,0,1,.20172-.41083c.0574-.09348.20172-.12218.22305.06479.03608.15826.15088.55433.23042.82821.15826.45347.84216,2.37641,1.02256,2.866.0287.07873.0574.07217.0861-.00738.21649-.59779.63388-1.8434.87168-2.54943a5.13685,5.13685,0,0,0,.20829-.81346c0-.13694-.0574-.21566-.52563-.27388-.26651-.0287-.25913-.25913.00738-.25913.23042,0,.60517.01476.81345.01476.22387,0,.49693-.02132.66258-.02132.2665,0,.27388.23043,0,.26569-.30915.05084-.39607.13038-.583.59123-.2665.66175-.9217,2.54123-1.36122,3.75814-.15089.40345-.237.49693-.30915.49693-.08692,0-.11562-.07216-.15826-.187-.18041-.55434-.97255-2.80856-1.27513-3.57856C100.06906,137.44852,100.04774,137.442,100.04036,137.47066Z"/><path class="a" d="M105.29257,141.12876c-.24437,0-.25175-.22387-.02132-.26651.30915-.06478.35261-.123.35261-.42477v-1.67119a1.89936,1.89936,0,0,0-.01476-.32391c-.00656-.1148-.0287-.1435-.31653-.25913-.12956-.05-.13694-.2091.03608-.2378a1.79124,1.79124,0,0,0,.61173-.22305.381.381,0,0,1,.18041-.07216c.07216,0,.1148.05084.10086.15827a5.05875,5.05875,0,0,0-.0574.9217v1.67119c0,.33785.0287.39607.36.46085.223.03608.223.26651-.02871.26651-.1804,0-.35342-.01476-.61255-.01476C105.68126,141.114,105.42213,141.12876,105.29257,141.12876Zm.98648-4.825a.40721.40721,0,0,1-.40345.43953.38062.38062,0,0,1-.38131-.40344.40978.40978,0,0,1,.40345-.43215A.392.392,0,0,1,106.27905,136.30377Z"/><path class="a" d="M108.6612,138.62934c0-.21566-.03608-.28044-.36737-.38868a.1164.1164,0,0,1,.01476-.22305,2.51754,2.51754,0,0,0,.57566-.28782.48356.48356,0,0,1,.18778-.07955c.06478,0,.09348.03608.10742.11563a2.41311,2.41311,0,0,1,.03608.50349,5.255,5.255,0,0,1,.5978-.43133,1.12756,1.12756,0,0,1,.60517-.18779c.60435,0,1.00042.43953,1.00042,1.24561v1.65643c0,.23043.04346.25913.36.31653.22386.03608.21648.26-.02132.26-.23043,0-.42477-.01476-.67-.01476-.187,0-.46741.01476-.60435.01476-.25913,0-.25913-.22387-.03608-.26.38131-.07134.40345-.1435.41-.37393.00738-.14432.02214-.31.02214-1.00862v-.48217a.769.769,0,0,0-.81428-.87824,1.16247,1.16247,0,0,0-.81346.43871.2444.2444,0,0,0-.05.18779v1.22428a3.90662,3.90662,0,0,0,.02132.57565c.00738.20173.03608.25175.39607.31653.20911.03608.19435.26-.03608.26-.15826,0-.39607-.01476-.65519-.01476-.23781,0-.43953.01476-.6265.01476-.24518,0-.2378-.22387-.02132-.26.32391-.06478.34523-.1148.36-.32391a5.06837,5.06837,0,0,0,.02132-.67651Z"/><path class="a" d="M115.21724,140.72531a1.397,1.397,0,0,0,.8069-.25913c.223-.13694.28782.06478.10742.24437a1.87784,1.87784,0,0,1-1.25955.49693,1.52705,1.52705,0,0,1-1.41863-1.70646,1.8912,1.8912,0,0,1,.61912-1.44,1.57607,1.57607,0,0,1,1.0078-.41083,1.13789,1.13789,0,0,1,1.16688,1.13819c.04346.02132.07954.04264.07954.10742,0,.12956-.14432.22386-.27388.25913a7.13448,7.13448,0,0,1-2.03037.15908C114.03641,140.27184,114.51858,140.72531,115.21724,140.72531Zm-1.13-1.7573a2.37984,2.37984,0,0,0,.26568.01476,8.66809,8.66809,0,0,0,1.31121-.06478.07906.07906,0,0,0,.03608-.07954.83972.83972,0,0,0-.85692-.82822c-.38213,0-.72079.25913-.79952.893C114.04379,138.94669,114.05118,138.96063,114.08726,138.968Z"/></svg>