<svg xmlns="http://www.w3.org/2000/svg" viewBox="0 0 150 185"><defs><style>.a{fill:#730052;}.b{fill:#a66b8d;}.c{fill:#ece1e9;}</style></defs><title>y_logo</title><path class="a" d="M7.79264,167.36452c.08348.14614.188.06266.25065-.021.77255-1.35733,2.02559-3.50825,2.73569-4.82394a2.956,2.956,0,0,0,.41761-1.10669c0-.25064-.20881-.45945-1.1069-.60559-.75173-.10451-.68907-.75195.021-.75195.77256,0,1.42.06266,2.04641.06266.79358,0,1.50368-.06266,1.96314-.06266.83521,0,.89787.66826.04163.77277a2.29285,2.29285,0,0,0-1.87945,1.232c-.98157,1.441-2.56852,4.1559-3.55009,5.95165a2.44318,2.44318,0,0,0-.4176,1.04423v2.172c0,.77255.02081,1.42.04163,1.67064.08348.62641.43864.75174,1.69167.91869.79337.10451.70989.75195-.08369.75195-.89788,0-1.58695-.04184-2.56852-.04184-.77277,0-1.54532.04184-2.31808.04184-.77256,0-.77256-.66826-.04164-.75195,1.35733-.18777,1.44081-.45945,1.48266-1.08586.02082-.25065.02082-.8144.02082-1.46184V169.3901a2.96829,2.96829,0,0,0-.12533-.96054,65.90469,65.90469,0,0,0-3.92606-6.9124c-.27147-.37576-.50109-.56375-1.48266-.70989-.75173-.10451-.77255-.75195.021-.75195.856,0,1.46163.06266,2.17173.06266.73092,0,1.42-.06266,1.96293-.06266.81461,0,.77276.62663.08369.75195-.81461.167-.85625.37576-.64744.73092C5.558,163.33394,7.60465,166.98854,7.79264,167.36452Z"/><path class="a" d="M29.19641,167.92826c0,5.51323-2.861,6.97507-6.077,6.97507-4.13486,0-5.722-2.35993-5.722-5.55507v-5.57568a18.27415,18.27415,0,0,0-.06266-1.85863c-.04185-.75173-.167-.96054-1.44081-1.12771-.73092-.08348-.77277-.73092.04163-.73092.25065,0,1.35733.06266,2.21358.06266.87706,0,1.42-.04163,2.08825-.04163.75195,0,.77276.64723.04184.75174-.83521.14614-1.044.376-1.10668,1.08586-.021.2925-.04184.98157-.04184,1.85863V168.889c0,3.42476,2.06743,4.76128,4.90742,4.76128,2.61036,0,3.98872-1.19038,3.98872-5.68019v-5.05377c0-1.16935-.06266-1.56614-.43863-1.75412a3.98065,3.98065,0,0,0-1.42-.355c-.75173-.08369-.70989-.75195.08348-.75195.89809,0,1.3157.06266,2.19276.06266.93972,0,1.441-.06266,2.04662-.06266.81439,0,.81439.62663.06266.75195-.96075.167-1.14853.41761-1.27385,1.10668a17.64327,17.64327,0,0,0-.08348,2.52689Z"/><path class="a" d="M38.19515,161.747c.188-.45945.29249-.85624.33413-.98157.04184-.2088.75173-.9189,1.065-.9189.2088,0,.29228.06266.33412.31331a3.57719,3.57719,0,0,0,.2925,1.14853c1.19016,3.19514,3.23678,8.16522,4.55247,11.15156a1.79179,1.79179,0,0,0,1.64962,1.33652c.9189.1045.79358.77276.04184.77276-.48027,0-1.27385-.04184-2.08825-.04184-.66825,0-1.67064.04184-2.10928.04184-.79358,0-.83521-.64744-.08347-.77276.85624-.167.9189-.376.75173-.85625-.29228-.85624-1.04423-2.63118-1.54532-3.8634-.06266-.18777-.12532-.22962-.4176-.22962H36.58717c-.1043,0-.167.08348-.22962.188-.33413.8144-.77277,1.90026-1.23222,3.216-.41761,1.14853-.3131,1.3157,1.19037,1.56613.73092.10451.66826.75195-.08348.75195-.60559,0-1.16955-.04184-2.08825-.04184-.93993,0-1.9421.06266-2.2346.06266-.66826,0-.73092-.6056-.04185-.75174,1.14874-.22983,1.46184-.35516,2.10928-1.85863C34.87489,169.8914,37.27624,163.91872,38.19515,161.747ZM36.817,167.67783c-.021.10429,0,.12511.12511.12511h3.71726c.25065,0,.22984-.08348.188-.18777-.564-1.27386-1.16955-2.96553-2.00477-5.05378C38.4458,163.50111,37.33891,166.46643,36.817,167.67783Z"/><path class="a" d="M55.29688,173.67111a6.10436,6.10436,0,0,1-3.905,1.21119c-1.54553,0-2.94471-.50109-3.00737-1.12771a11.72992,11.72992,0,0,1,.1045-2.90265c.14615-.66825.71011-.64744.75174-.06266a4.63065,4.63065,0,0,0,.45945,1.96293c.25065.35515.62663,1.04423,2.65222,1.04423a2.895,2.895,0,0,0,3.216-2.9445,2.538,2.538,0,0,0-1.75413-2.52688c-.81439-.41761-1.98395-.8144-2.5477-1.06505a3.74113,3.74113,0,0,1-2.61037-3.46661c0-2.29706,2.02559-4.093,4.80292-4.093a5.11462,5.11462,0,0,1,2.17194.39679c.06266.02081.167-.04185.376-.29229.29229-.376.79337-.35515.70989.1043a15.80418,15.80418,0,0,0-.25065,2.98634c-.02081.8144-.70989.85624-.79337.12532a2.31327,2.31327,0,0,0-.62662-1.64982,2.8332,2.8332,0,0,0-2.23439-.68907,2.21143,2.21143,0,0,0-2.50607,2.42237,2.52692,2.52692,0,0,0,1.92129,2.52689c.91891.39679,1.54532.62641,2.297.93972,2.27624.91891,2.8402,2.06744,2.8402,3.34129A4.39656,4.39656,0,0,1,55.29688,173.67111Z"/><path class="a" d="M64.94349,161.747c.188-.45945.29249-.85624.33412-.98157.04185-.2088.75174-.9189,1.065-.9189.20881,0,.2925.06266.33413.31331a3.582,3.582,0,0,0,.29228,1.14853c1.19016,3.19514,3.237,8.16522,4.55269,11.15156a1.79159,1.79159,0,0,0,1.64961,1.33652c.91891.1045.79359.77276.04164.77276-.48006,0-1.27364-.04184-2.088-.04184-.66826,0-1.67085.04184-2.10928.04184-.79358,0-.83521-.64744-.08369-.77276.85646-.167.91891-.376.75195-.85625-.29228-.85624-1.04423-2.63118-1.54553-3.8634-.06245-.18777-.12533-.22962-.41761-.22962h-4.3853c-.1043,0-.167.08348-.22962.188-.33413.8144-.77277,1.90026-1.23222,3.216-.41761,1.14853-.3131,1.3157,1.19037,1.56613.73092.10451.66826.75195-.08348.75195-.60559,0-1.16956-.04184-2.08825-.04184-.93972,0-1.94232.06266-2.2346.06266-.66826,0-.73092-.6056-.04164-.75174,1.14853-.22983,1.46163-.35516,2.10907-1.85863C61.623,169.8914,64.02458,163.91872,64.94349,161.747Zm-1.37815,5.93084c-.021.10429,0,.12511.12511.12511h3.71726c.25065,0,.22962-.08348.188-.18777-.564-1.27386-1.16956-2.96553-2.00477-5.05378C65.19414,163.50111,64.08724,166.46643,63.56534,167.67783Z"/><path class="a" d="M90.41861,163.96057c-.89809,2.46422-3.65481,10.02385-3.84259,10.31614-.16695.31331-.4176.62662-.62662.62662-.22941,0-.33392-.10451-.58456-.91891-.3968-1.29488-3.71726-11.75716-4.23938-12.48808-.27147-.43863-.58457-.54293-1.41978-.66825-.752-.08348-.73113-.77277.06245-.77277.62662,0,1.35733.06266,2.1301.06266.856,0,1.67043-.06266,2.35992-.06266.79359,0,.83522.66826.10409.77277-1.10668.188-1.21119.48027-1.023,1.065.33391,1.1069,2.58933,8.12338,3.049,9.41827.08327.25064.1249.25064.22941.08347.12532-.2088,2.75672-7.51778,3.57112-9.71054a6.29126,6.29126,0,0,1,.58456-1.19037c.16738-.27147.585-.35495.64744.188.10451.45945.43843,1.608.66826,2.40156.45966,1.31548,2.44319,6.89137,2.96531,8.31136.08369.22984.16738.20881.25065-.02081.62662-1.73331,1.83781-5.34606,2.52689-7.39268a14.989,14.989,0,0,0,.6058-2.35971c0-.39679-.16738-.62641-1.52471-.79358-.77234-.08348-.75152-.75174.02082-.75174.66825,0,1.75454.04163,2.35992.04163.64745,0,1.441-.06266,1.92108-.06266.77277,0,.79359.66826,0,.77277-.89766.14614-1.14831.376-1.69124,1.71248-.77277,1.92108-2.673,7.37165-3.94709,10.90092-.43843,1.16934-.68908,1.44081-.89767,1.44081-.25065,0-.33434-.2088-.45967-.54293-.52211-1.608-2.81917-8.14441-3.69644-10.3788C90.50188,163.89791,90.43943,163.87709,90.41861,163.96057Z"/><path class="a" d="M102.86272,174.5692c-.70989,0-.73071-.64744-.06245-.77276.89809-.188,1.02341-.355,1.02341-1.232v-4.845a5.60022,5.60022,0,0,0-.042-.93972c-.02082-.33413-.08327-.41761-.91891-.75174-.37555-.14614-.39679-.60559.10451-.68928a5.24933,5.24933,0,0,0,1.77536-.64723,1.10017,1.10017,0,0,1,.52169-.20881c.209,0,.33434.14615.29271.45946a14.50983,14.50983,0,0,0-.16738,2.673v4.84475c0,.98157.08369,1.14853,1.04423,1.33652.64744.1045.64744.77276-.08327.77276-.52212,0-1.02341-.04184-1.77536-.04184C103.99064,174.52736,103.23869,174.5692,102.86272,174.5692Zm2.86123-13.99176a1.17963,1.17963,0,0,1-1.16956,1.27385,1.10356,1.10356,0,0,1-1.10668-1.16934,1.18836,1.18836,0,0,1,1.16955-1.253A1.136,1.136,0,0,1,105.724,160.57744Z"/><path class="a" d="M109.62856,167.32267c0-.62641-.10451-.8144-1.065-1.12771a.338.338,0,0,1,.04163-.64723,7.33251,7.33251,0,0,0,1.67043-.83543,1.42276,1.42276,0,0,1,.54336-.22962c.18777,0,.27146.1043.3131.33413a7.14419,7.14419,0,0,1,.10451,1.46184,15.20738,15.20738,0,0,1,1.7333-1.253,3.276,3.276,0,0,1,1.75412-.54294c1.75412,0,2.90244,1.27386,2.90244,3.61275v4.80313c0,.66826.12532.75174,1.04423.91869.64744.10451.62662.75195-.06245.75195-.66826,0-1.23243-.04184-1.94232-.04184-.54293,0-1.35733.04184-1.75412.04184-.75153,0-.75153-.64744-.10451-.75195,1.1071-.2088,1.16955-.4176,1.19037-1.08586.02082-.41761.06288-.89788.06288-2.92368v-1.39918a2.23037,2.23037,0,0,0-2.35993-2.5477,3.36336,3.36336,0,0,0-2.35993,1.27385.70654.70654,0,0,0-.14614.54315v3.55009a11.16036,11.16036,0,0,0,.06287,1.67064c.02082.58456.10451.73092,1.14832.91869.6058.10451.56417.75195-.10409.75195-.45966,0-1.14874-.04184-1.90068-.04184-.68908,0-1.27364.04184-1.81658.04184-.70989,0-.68907-.64744-.06287-.75195.93972-.18777,1.0026-.33413,1.04423-.93972a14.469,14.469,0,0,0,.06288-1.96293Z"/><path class="a" d="M125.64421,173.39965a4.03572,4.03572,0,0,0,2.33869-.75174c.64744-.39679.83564.188.31352.70989a5.45338,5.45338,0,0,1-3.65481,1.441c-2.42238,0-4.11363-2.10928-4.11363-4.94926a5.49034,5.49034,0,0,1,1.79576-4.1765,4.57008,4.57008,0,0,1,2.92368-1.19038,3.29927,3.29927,0,0,1,3.38292,3.29944c.12532.06267.22983.12533.22983.31331,0,.37577-.41761.64723-.79358.75174-.83522.22962-1.90027.45945-5.889.45945C122.21923,172.08395,123.61862,173.39965,125.64421,173.39965Zm-3.27884-5.09541a7.14333,7.14333,0,0,0,.77277.04184,25.16,25.16,0,0,0,3.80095-.188c.08327-.04185.10408-.12533.10408-.22984a2.4336,2.4336,0,0,0-2.48483-2.40156c-1.1071,0-2.08846.75195-2.31829,2.58955C122.24005,168.24158,122.26129,168.28342,122.36537,168.30424Z"/><path class="a" d="M137.81813,165.67306a2.10452,2.10452,0,0,1-.29271,1.10668c-.06245.16717-.25023.39679-.45924.39679-.18778,0-.22983-.04185-.54293-.39679a1.44072,1.44072,0,0,0-1.10669-.52212,2.379,2.379,0,0,0-1.79618,1.00239.44088.44088,0,0,0-.1045.31331v4.114c0,.5219.02124.93972.042,1.25282.04164.6056.22941.68929,1.441.91891.6262.12532.54293.7101-.04206.7101-.43843,0-1.16956-.04184-2.06722-.04184-.89809,0-1.441.04184-1.94232.04184-.56375,0-.6262-.58478-.06245-.73092.87685-.22983.9189-.31331.96054-.8144a8.1687,8.1687,0,0,0,.06245-1.31569v-3.42477a6.93121,6.93121,0,0,0-.06245-1.37836c-.02082-.31331-.22984-.45945-1.02342-.7101-.33391-.12533-.33391-.48027,0-.62641a17.99056,17.99056,0,0,0,1.90069-.96054.66337.66337,0,0,1,.35473-.12533c.167,0,.27147.167.3131.39679a10.588,10.588,0,0,1,.12533,1.64962c1.7333-1.71228,2.35993-2.04641,3.02818-2.04641A1.21055,1.21055,0,0,1,137.81813,165.67306Z"/><path class="a" d="M138.61043,165.61039c-.66825-.1045-.64744-.73092.02082-.75194.52212-.02082,1.33651.04184,1.94232.04184.41761,0,1.37815-.04184,1.77494-.04184.66826,0,.68907.64744.10451.77276-.8144.188-.91891.31331-.752.77255.79358,1.94232,1.77536,4.32286,2.3183,5.70122.06245.10429.12532.12532.16695.04163,1.1275-2.485,2.02559-4.80312,2.23461-5.40872.20859-.75173.10408-.89788-.93973-1.10668-.66825-.12532-.66825-.75174.02082-.77276.39679,0,1.04381.04184,1.64961.04184.45924,0,1.10669-.04184,1.64962-.04184.71031-.02082.79358.62662.04206.79358-.77277.188-.91891.39679-1.27407,1.16955-.68907,1.56614-2.21336,4.7821-4.19732,9.52256-1.00259,2.485-1.31569,3.42476-1.48265,3.94688a.50763.50763,0,0,1-.56417.39679c-.70989,0-1.16914-.39679-1.16914-.75174a3.41852,3.41852,0,0,1,.6262-1.35733c.52212-.81461.77277-1.253,1.27407-2.08846.39679-.75173.7307-1.44081,1.08586-2.12988a.43769.43769,0,0,0,.02082-.33434c-1.00217-2.42238-2.29706-5.38769-3.049-7.01649C139.63385,166.06963,139.52934,165.79817,138.61043,165.61039Z"/><path class="a" d="M56.02315,56.20173,55.22327,54.56a.80031.80031,0,0,1-.08479-.54724.8105.8105,0,0,1,.16871-.50527,1.68228,1.68228,0,0,1,.54724-.54724,2.41618,2.41618,0,0,1,.716-.25264,20.2305,20.2305,0,0,1,3.578-.08393,25.34236,25.34236,0,0,1,3.49412.63117l.50528.54724c.042.08393.08392.21067.12589.2946a.782.782,0,0,1-.08393.2946l-.2946.54724a.77623.77623,0,0,1-.37939.2946,1.11093,1.11093,0,0,1-.50442.12675c-1.01055.16786-2.02111.33657-3.03166.54724-1.0097.21068-2.02025.46246-2.98884.7151a.61884.61884,0,0,1-.54724,0A.81809.81809,0,0,1,56.02315,56.20173Zm.54724,11.99733a3.69581,3.69581,0,0,1-1.01056-1.515,4.50438,4.50438,0,0,1-.37853-1.81044.67221.67221,0,0,1,.12589-.33656.59986.59986,0,0,1,.29461-.25264q2.14656-.632,4.42074-1.13644c1.473-.25264,2.98884-.46332,4.54578-.59006a.76092.76092,0,0,1,.37938.16871.65616.65616,0,0,1,.25264.33656,1.30467,1.30467,0,0,1-.042.42135,1.16791,1.16791,0,0,1-.25264.33657,27.01518,27.01518,0,0,0-2.69424,1.38908c-.88466.50528-1.7265,1.05252-2.56835,1.55779-.37853.25264-.71595.46332-1.05251.674a9.08955,9.08955,0,0,0-.92577.79988.75719.75719,0,0,1-.54724.20982A.62412.62412,0,0,1,56.57039,68.19906Zm.21067-22.227-.46331-1.89436a.53364.53364,0,0,1,0-.50528,1.30591,1.30591,0,0,1,.21067-.42135l.75706-.42049a33.45328,33.45328,0,0,1,4.5886.21068,29.19806,29.19806,0,0,1,4.50467,1.09448l.37939.75791a.69159.69159,0,0,1,.08392.4205.51049.51049,0,0,1-.12674.37853l-.84185.71595a2.26,2.26,0,0,1-.46245.21067,1.205,1.205,0,0,1-.54724,0c-1.17927-.042-2.39964-.08393-3.5789-.08393q-1.76761,0-3.53609.1259a.65534.65534,0,0,1-.63116-.08393A.5078.5078,0,0,1,56.78106,45.972Zm10.98677,7.07216c.21068-.08392.46332-.16785.716-.25264a4.8507,4.8507,0,0,1,.79987-.042,69.71725,69.71725,0,0,0,7.28284.33657,68.64854,68.64854,0,0,0,7.19891-.33657l-1.17926-1.72565c-1.22038-.08478-2.4416-.08478-3.662-.08478a33.368,33.368,0,0,0-3.5789.2946c-.20982.04282-.42049.08478-.5892.12675a3.83334,3.83334,0,0,0-.58921.2946,1.34134,1.34134,0,0,1-.5892.08393,1.1572,1.1572,0,0,1-.54724-.08393,1.29,1.29,0,0,1-.88381-.79988,1.33121,1.33121,0,0,1-.12674-1.13644,26.37967,26.37967,0,0,0,.8838-2.56835,17.38024,17.38024,0,0,0,.42135-2.65228,2.78613,2.78613,0,0,0-.21067-1.1784,2.42919,2.42919,0,0,0-.79988-.79988.98275.98275,0,0,1-.50528-.50528,1.3855,1.3855,0,0,1-.16785-.71509l.16785-1.01056,1.47387-1.38908a.89712.89712,0,0,1,.50527-.16871,2.25985,2.25985,0,0,1,.46246.21067l8.42014-.042a.67688.67688,0,0,1,.46246-.33742.93.93,0,0,1,.59006-.042l1.5989.54724a1.87212,1.87212,0,0,1,.632.50528,1.36271,1.36271,0,0,1,.25264.75792,3.03346,3.03346,0,0,1-.16871.92577,2.869,2.869,0,0,1-.42049.88466l.37853,8.2086a5.66066,5.66066,0,0,1-.16872,1.22123,8.02584,8.02584,0,0,1-.46245,1.05252c1.72565-.12675,3.4513-.16871,5.21976-.16871,1.72565,0,3.45216.08393,5.21977.21067h.16871c.08393.042.12589.08393.21068.12589.042.08479.08392.12675.08392.21068a1.839,1.839,0,0,1-.042.21067,7.803,7.803,0,0,1-.79988,1.13645,3.82819,3.82819,0,0,1-1.01055,1.01055,2.27391,2.27391,0,0,1-.75792.4205,1.976,1.976,0,0,1-.84184.08478c-1.17841,0-2.31485,0-3.45215-.08478q-1.76762-.12589-3.40934-.37853c-1.17926-.12675-2.35767-.25264-3.53608-.33657-1.17926-.08478-2.31571-.12675-3.49412-.16871l-.96859,1.51583a60.92242,60.92242,0,0,1,6.65167,1.59976q3.28344,1.13559,6.441,2.52552a.84891.84891,0,0,1,.46245-.12589,2.11308,2.11308,0,0,1,.50528.08393,2.39534,2.39534,0,0,1,.88466.54724,5.44791,5.44791,0,0,1,.58921.88381,1.12427,1.12427,0,0,1,.12589.50527.95745.95745,0,0,1-.25264.50528,2.99454,2.99454,0,0,0-.42049.58921,6.31551,6.31551,0,0,0-.37939.63116c-.67313,1.2632-1.34712,2.48442-2.06221,3.66283a32.39623,32.39623,0,0,1-2.52639,3.41019,1.64291,1.64291,0,0,1-.71509.58921,3.77409,3.77409,0,0,1-.92663.12589l-1.93632-.4205a.719.719,0,0,1-.42135-.25263.45246.45246,0,0,1-.12589-.42135l.08393-.54724A31.57764,31.57764,0,0,0,87.09082,66.768a29.37567,29.37567,0,0,0,2.65227-3.95743,20.94583,20.94583,0,0,0-1.97914-.92577c-.67313-.2946-1.34626-.5892-1.97829-.8838l-6.98823,8.79781a2.932,2.932,0,0,1-1.22038.79988,2.43727,2.43727,0,0,1-1.34711.12674,6.70373,6.70373,0,0,1-1.38909-.37938,3.16444,3.16444,0,0,1-1.26319-.75706.37007.37007,0,0,1-.25264-.29546c-.08393-.08393-.08393-.20982-.042-.37853l.16785-.33656c.04282-.08393.12675-.12675.25264-.21068h.2946a7.77737,7.77737,0,0,0,2.147-.79988,7.185,7.185,0,0,0,1.8524-1.34712l5.68308-6.01964-2.69424-.79988c-1.17841,1.30516-2.35682,2.52553-3.57805,3.662a47.54131,47.54131,0,0,1-3.91461,3.2843,2.89086,2.89086,0,0,1-1.4319.7151,2.45966,2.45966,0,0,1-1.55779,0,2.223,2.223,0,0,1-.88381-.46332,2.61544,2.61544,0,0,1-.75792-.5892l.21068-.79988a.57966.57966,0,0,1,.21067-.37853.66578.66578,0,0,1,.33657-.21067,21.19409,21.19409,0,0,0,4.75731-2.4416,23.91664,23.91664,0,0,0,4.04136-3.36737l-3.11559-.54724-5.51437,3.49326a2.43791,2.43791,0,0,1-1.26319.37938,1.91724,1.91724,0,0,1-1.26319-.33656L64.98967,60.4118c-.21068-.08478-.33657-.21067-.33657-.37938a.68472.68472,0,0,1,.16786-.58921,1.04059,1.04059,0,0,1,.46331-.16871,2.2314,2.2314,0,0,1,.54724-.042,6.88743,6.88743,0,0,0,1.8524-.042,8.25879,8.25879,0,0,0,1.72564-.54724l7.24088-3.74676a21.8903,21.8903,0,0,0-4.41989.2946,18.31174,18.31174,0,0,0-4.294,1.38908.37913.37913,0,0,1-.42134,0,.71264.71264,0,0,1-.4205-.25263,4.12684,4.12684,0,0,1-.54724-.84185,3.06444,3.06444,0,0,1-.37938-.92577.61672.61672,0,0,1,.08478-.5892.91091.91091,0,0,1,.46246-.42135Zm7.99879-3.99939,6.90431-.042.042-3.24148a4.83869,4.83869,0,0,1-1.09448.37938,3.59647,3.59647,0,0,1-1.09448.20982H75.80859Zm.042-4.8832,6.98823-.12589V41.46735l-6.94627.42135Z"/><path class="a" d="M56.44364,101.29913c1.34712-.37939,2.779-.716,4.21007-1.05252,1.431-.25264,2.86209-.46331,4.37792-.632h.25264a.21643.21643,0,0,0,.16871.08478l.25264.33656c0,.042.042.08393.08393.1259,0,.08478-.042.12674-.042.21067a28.30881,28.30881,0,0,0-2.65227,1.68369,30.22178,30.22178,0,0,0-2.48357,1.97914,5.75745,5.75745,0,0,1-1.30515,1.01055,13.18458,13.18458,0,0,1-1.47387.84184.73489.73489,0,0,1-.5892.042.60807.60807,0,0,1-.50528-.37939l-1.09448-1.89436a1.52021,1.52021,0,0,1-.12589-1.34712A1.47149,1.47149,0,0,1,56.44364,101.29913Zm.88466-11.0296a22.80713,22.80713,0,0,1,3.36737.12589,17.5412,17.5412,0,0,1,3.24148.84185.88506.88506,0,0,1,.25264.16871c.042.08393.08393.12589.08393.21067v.63117c-.08393.08393-.12589.16871-.16786.16871-1.22123.33657-2.39963.67313-3.5789,1.0097-1.22037.37938-2.4416.75791-3.62,1.09534a.68366.68366,0,0,1-.92577-.42135l-.37938-1.431a1.71734,1.71734,0,0,1,.2946-1.59976A2.0563,2.0563,0,0,1,57.3283,90.26953Zm.92577-9.3459a24.86587,24.86587,0,0,1,3.87265.46331,26.62284,26.62284,0,0,1,3.66283,1.22037c.08392.08478.12589.12675.21067.21068v.2946l-.632,1.34712c-.042.08478-.08393.16871-.12589.16871a.25981.25981,0,0,1-.29461.042l-3.19951.16871-3.15755.20982a1.742,1.742,0,0,1-.50528-.042,2.411,2.411,0,0,1-.54724-.042l-.50528-.16871a.35837.35837,0,0,1-.2946-.2946.48979.48979,0,0,1-.08393-.42049l-.12589-1.01056a2.10548,2.10548,0,0,1,.08393-.8838,1.396,1.396,0,0,1,.46331-.674,2.68565,2.68565,0,0,1,.54724-.42049A3.42777,3.42777,0,0,1,58.25407,80.92363Zm10.735,1.30515,7.07216.08393a2.908,2.908,0,0,1,.37853-2.189A3.28761,3.28761,0,0,1,78.03951,78.524c.08478,0,.21068-.042.33742-.042a.56261.56261,0,0,1,.29461.12589l.84184.54809c.08393.08393.16785.12589.21067.20982a1.30707,1.30707,0,0,1,.08393.33742l-.042.33657a.14653.14653,0,0,1-.042.08393c0,.08392-.04282.12674-.08478.12674-.25264.20982-.46246.37853-.67313.54725a3.82808,3.82808,0,0,1-.674.46245l.04282,1.09448,5.26173.08479,1.13644-2.147a4.50066,4.50066,0,0,0,.21068-.58921,3.86851,3.86851,0,0,0-.042-.674.33825.33825,0,0,1,.042-.33657.42722.42722,0,0,1,.25264-.21067l.8838-.50528,1.93633.92663c.04282,0,.08478.042.12674.08392a.18377.18377,0,0,0,.042.12589v.16871a.51964.51964,0,0,1-.08393.1259L86.3329,82.39749a3.92652,3.92652,0,0,1,1.22123.042,4.92306,4.92306,0,0,1,1.09448.42049l.2946.54724c0,.08478.042.16871.042.25264a.59611.59611,0,0,1-.08393.25264L87.722,85.68094a.80132.80132,0,0,1-.46245.2946.62623.62623,0,0,1-.54724,0c-1.34712-.16871-2.69424-.33657-4.04136-.46332-1.34712-.08392-2.69424-.16871-3.99939-.25263l.2946,1.97914c1.431.08393,2.86209.16785,4.336.2946,1.431.12589,2.90491.2946,4.336.50442a1.08182,1.08182,0,0,1,.2946.16871.78209.78209,0,0,1,.08393.29461,3.91007,3.91007,0,0,1-.16786.96858,2.8746,2.8746,0,0,1-.42135.88381.709.709,0,0,1-.42049.2946,1.02959,1.02959,0,0,1-.50528,0c-1.17926-.2946-2.31571-.54724-3.49411-.75791-1.17927-.16786-2.35768-.25264-3.49412-.33657l.84184,2.90492c1.97829,0,3.95743.08392,5.93572.21067,1.97829.12589,3.95743.2946,5.93572.54724a.79409.79409,0,0,1,.54724.2946.61425.61425,0,0,1,.08392.58921l-.79988,1.34712a.91258.91258,0,0,1-.37852.2946.72225.72225,0,0,1-.50528.08393c-1.64172-.33657-3.28344-.63117-4.92517-.79988a49.994,49.994,0,0,0-5.00994-.20982l1.76847,3.49412,1.515-1.38994a.41684.41684,0,0,1,.33742-.12589.833.833,0,0,1,.42049.08392l1.59976.96859a1.156,1.156,0,0,1,.42135.75792.77593.77593,0,0,1-.25264.75706l-2.0211,1.51583a13.19532,13.19532,0,0,0,2.90491,2.35767,12.7293,12.7293,0,0,0,3.41019,1.64172,2.39933,2.39933,0,0,0,1.22037.16871,2.83521,2.83521,0,0,0,1.26319-.33742,4.75032,4.75032,0,0,1,.92577-.33657,7.17123,7.17123,0,0,1,.96859-.042l.33657.12589a27.9123,27.9123,0,0,1-1.431,2.98884,25.17515,25.17515,0,0,1-1.85239,2.69424,2.22184,2.22184,0,0,1-.46332.21068,1.57918,1.57918,0,0,1-.46245-.042,18.96659,18.96659,0,0,1-9.68248-7.11412c-1.09448.92577-2.147,1.89436-3.24148,2.86209-1.01055,1.01055-2.06307,1.97914-3.07362,2.98884-.042.08478-.08393.08478-.16786.08478-.08478.042-.12674.042-.16871,0l-.42135-.5892c-.08392-.04282-.08392-.08478-.08392-.16871s.042-.12675.08392-.21068c.8427-1.26319,1.72651-2.56749,2.69424-3.83068.92663-1.22123,1.93718-2.4416,2.94688-3.62-.46246-.92662-.88381-1.85239-1.3043-2.86295a21.56306,21.56306,0,0,1-1.05252-2.90491c-1.7265.16871-3.41019.37939-5.05191.674a38.23873,38.23873,0,0,0-4.92516,1.22037,1.25479,1.25479,0,0,1-.674.042.72482.72482,0,0,1-.5892-.33656L66.5055,95.7a.8439.8439,0,0,1-.16871-.54724.92141.92141,0,0,1,.16871-.54724l.63117-1.17926a.827.827,0,0,1,.37853-.37853,1.073,1.073,0,0,1,.50527-.08393q2.39964-.25306,4.79928-.37938c1.59975-.08393,3.15755-.12589,4.7573-.16786l-.632-2.86295c-1.431.08393-2.86209.21068-4.25118.37939-1.4319.25178-2.821.54724-4.1681.92577a.86836.86836,0,0,1-.46331,0,1.31875,1.31875,0,0,1-.4205-.21068l-.37938-.63116a.3793.3793,0,0,1-.08393-.37939.62619.62619,0,0,1,.08393-.37853l.674-1.17841c.08393-.08478.16872-.16871.25264-.25264a.51183.51183,0,0,1,.37853-.12674c1.30516-.16786,2.65228-.25264,3.9994-.33657,1.30515-.08393,2.65227-.12589,3.99939-.12589l-.2946-2.06307H72.69385c-.674.08393-1.30515.21067-1.93718.2946-.67313.12589-1.30429.2946-1.93632.46331a.62866.62866,0,0,1-.54724-.04282.651.651,0,0,1-.33657-.50442,2.84334,2.84334,0,0,1-.08392-1.34712,3.03263,3.03263,0,0,1,.33656-1.34712.742.742,0,0,1,.33657-.37938A.90982.90982,0,0,1,68.98906,82.22878Z"/><path class="a" d="M37.06957,76.81414a38.34423,38.34423,0,0,1,13.7032-29.38145L48.39,46.61336a40.5192,40.5192,0,0,0-.58,59.86452l2.4053-.76557A38.32839,38.32839,0,0,1,37.06957,76.81414Z"/><path class="a" d="M97.8877,48.12342l-2.3979.92267a34.18764,34.18764,0,0,1,1.16907,54.65219l2.47467.78764a36.35628,36.35628,0,0,0-1.24584-56.3625Z"/><path class="a" d="M116.08516,76.81414a40.50315,40.50315,0,0,0-13.73886-30.4063l-2.30483.88687a38.35954,38.35954,0,0,1,1.31176,57.8977l2.368.75374A40.47127,40.47127,0,0,0,116.08516,76.81414Z"/><path class="a" d="M39.0618,76.81414a36.36653,36.36653,0,0,0,13.38451,28.188l2.51029-.799a34.20027,34.20027,0,0,1,.52074-55.15274l-2.48428-.85425A36.37012,36.37012,0,0,0,39.0618,76.81414Z"/><path class="a" d="M88.71263,9.63516q-2.408,0-4.84958.23984A50.52756,50.52756,0,0,0,41.5029,42.95359c17.43194-13.589,33.22641-20.65218,48.1942-21.56977,14.64851-.89689,28.96331,4.02844,43.61144,15.03616C122.5802,19.33357,106.44094,9.63516,88.71263,9.63516Z"/><path class="b" d="M134.32628,44.96984C122.16188,30.223,101.86816,23.35573,81.7145,26.87457c41.68093,14.031,58.747,34.29181,59.02195,70.43912C148.06459,77.74208,145.82808,58.91325,134.32628,44.96984Z"/><path class="a" d="M135.77491,102.28892a52.51019,52.51019,0,0,0-18.45078-49.91815c7.80337,20.36948,9.95746,36.75116,6.78748,51.30025-3.07612,14.11895-11.4837,26.70426-25.63959,38.335C118.84186,135.22375,132.3115,120.988,135.77491,102.28892Z"/><path class="b" d="M83.44916,131.90152c-13.44156,7-28.7922,8.51733-46.77218,4.60013,18.14073,11.84955,38.7116,13.25789,55.99388,3.56687a52.59226,52.59226,0,0,0,26.92081-47.86863C109.08358,111.7146,97.23514,124.72268,83.44916,131.90152Z"/><path class="a" d="M4.02706,83.7014c1.73318,21.5354,13.2494,38.481,31.562,45.96657a52.10893,52.10893,0,0,0,53.53675-8.75865c-21.72127,4.04766-39.12106,2.94049-53.09551-3.36141C22.42463,111.41268,11.91506,100.31073,4.02706,83.7014Z"/><path class="b" d="M9.622,80.81523c5.85105,19.04576,21.8654,33.02058,40.4773,35.70756C17.52073,86.36067,9.84781,58.13387,25.64191,26.02387,9.5422,40.9632,3.557,61.07178,9.622,80.81523Z"/><path class="c" d="M75.14729,2.37208h-.00817c-20.03836.00259-37.35868,10.39613-46.33168,27.80257-7.99032,15.50028-7.75569,33.297.37439,47.51127,1.44231-21.72278,6.38466-38.27222,15.05981-50.48465,8.61488-12.12856,20.967-20.17588,37.61253-24.463a62.85818,62.85818,0,0,0-6.70688-.36622"/></svg>